# xmcd
#
# Track frame offsets: 
#        150
#        25365
#        49977
#        66440
#        84927
#        103147
#        115377
#        131037
#        144657
#        160957
#        173847
#        188675
#        216207
#
# Disc length: 3078 seconds
#
# Revision: 5
# Processed by: cddbd v1.5.2PL0 Copyright (c) Steve Scherf et al.
# Submitted via: ExactAudioCopy v0.99pb5
#
DISCID=c10c040d
DTITLE=Sonic Youth - Confusion Is Sex Plus Kill Yr. Idols
DYEAR=1995
DGENRE=Rock
TTITLE0=(She's in a) Bad Mood
TTITLE1=Protect Me You
TTITLE2=Freezer Burn/I Wanna Be Your Dog
TTITLE3=Shaking Hell
TTITLE4=Inhuman
TTITLE5=The World Looks Red
TTITLE6=Confusion Is Next
TTITLE7=Making the Nature Scene
TTITLE8=Lee Is Free
TTITLE9=Kill Yr. Idols
TTITLE10=Brother James
TTITLE11=Early American
TTITLE12=Shaking Hell (Live)
EXTD=Kimm Gordon\nLee Ranaldo\nThurston Moore\nJim Sclavunos (confusio
EXTD=n is sex) \nBob Bert (Kill Yr. Idols]\n\nProduced by Sonic Youth 
EXTD=with Wharton Tiers and John Erskine\nEngineer: Wharton Tiers\nAss
EXTD=t. Eng.: John Erskine\n\nDGCD-24511\n\n\n YEAR: 1983
EXTT0=
EXTT1=
EXTT2=recorded live at The Pier, Raleigh N.C. November 1982
EXTT3=
EXTT4=
EXTT5=
EXTT6=
EXTT7=
EXTT8=
EXTT9=
EXTT10=
EXTT11=
EXTT12=recorded live at Plugg Club NYC Oct 15 1983
PLAYORDER=
